# xmcd
#
# Track frame offsets:
#	150
#	16779
#	34070
#	50045
#	69399
#	86893
#	103519
#	121269
#	136900
#	152284
#	170352
#	186141
#	203470
#	220902
#
# Disc length: 3160 seconds
#
# Revision: 1
# Processed by: cddbd v1.5.2PL0 Copyright (c) Steve Scherf et al.
# Submitted via: audiograbber 1.83.01
#
DISCID=b20c560e
DTITLE=ELBA RAMALHO - VAMBORA LÁ DANÇAR
DYEAR=1900
DGENRE=FORRÓ
TTITLE0=EMBOLAR NA AREIA
TTITLE1=DEITAR E ROLAR
TTITLE2=FREVO MEIO ENVERGONHADO
TTITLE3=QUANDO FECHO OS OLHOS
TTITLE4=PORQUE TEM QUE SER ASSIM
TTITLE5=NÃO CHORA, NÃO CHORA NÃO
TTITLE6=AMOR DE BUMBA-MEU-BOI
TTITLE7=FIBRA DE CRISTAL
TTITLE8=MUCURIPE
TTITLE9=ONDE DEUS POSSA ME OUVIR
TTITLE10=TU DE LÁ, EU DE CÁ
TTITLE11=NA REDE
TTITLE12=MINHA VIDA É TE AMAR
TTITLE13=FORRÓ BRASILEIRO
EXTD=
EXTT0=
EXTT1=
EXTT2=
EXTT3=
EXTT4=
EXTT5=
EXTT6=
EXTT7=
EXTT8=
EXTT9=
EXTT10=
EXTT11=
EXTT12=
EXTT13=
PLAYORDER=
